<svg width="1921" height="564" viewBox="0 0 1921 564" fill="none" xmlns="http://www.w3.org/2000/svg">
<rect width="1921" height="564" fill="#F5F5F5"/>
<g id="template00">
<rect id="Rectangle 896" x="0.898438" y="0.188965" width="1920" height="563" fill="#474747"/>
<circle id="Ellipse 1207" cx="85.5786" cy="91.7504" r="51" fill="white"/>
<circle id="Ellipse 1243" cx="85.5786" cy="275.326" r="51" fill="white"/>
<circle id="Ellipse 1277" cx="85.5786" cy="460.556" r="51" fill="white"/>
<circle id="Ellipse 1226" cx="137.234" cy="183.656" r="51" fill="white"/>
<circle id="Ellipse 1244" cx="137.234" cy="367.232" r="51" fill="white"/>
<circle id="Ellipse 1210" cx="191.579" cy="91.7504" r="51" fill="white"/>
<circle id="Ellipse 1245" cx="191.579" cy="275.326" r="51" fill="white"/>
<circle id="Ellipse 1278" cx="191.579" cy="460.556" r="51" fill="white"/>
<circle id="Ellipse 1227" cx="243.234" cy="183.656" r="51" fill="white"/>
<circle id="Ellipse 1246" cx="243.234" cy="367.232" r="51" fill="white"/>
<circle id="Ellipse 1211" cx="297.579" cy="91.7504" r="51" fill="white"/>
<circle id="Ellipse 1247" cx="297.579" cy="275.326" r="51" fill="white"/>
<circle id="Ellipse 1279" cx="297.579" cy="460.556" r="51" fill="white"/>
<circle id="Ellipse 1228" cx="349.234" cy="183.656" r="51" fill="white"/>
<circle id="Ellipse 1248" cx="349.234" cy="367.232" r="51" fill="white"/>
<circle id="Ellipse 1212" cx="403.579" cy="91.7504" r="51" fill="white"/>
<circle id="Ellipse 1249" cx="403.579" cy="275.326" r="51" fill="white"/>
<circle id="Ellipse 1280" cx="403.579" cy="460.556" r="51" fill="white"/>
<circle id="Ellipse 1229" cx="455.234" cy="183.656" r="51" fill="white"/>
<circle id="Ellipse 1250" cx="455.234" cy="367.232" r="51" fill="white"/>
<circle id="Ellipse 1213" cx="509.579" cy="91.7504" r="51" fill="white"/>
<circle id="Ellipse 1251" cx="509.579" cy="275.326" r="51" fill="white"/>
<circle id="Ellipse 1281" cx="509.579" cy="460.556" r="51" fill="white"/>
<circle id="Ellipse 1230" cx="561.234" cy="183.656" r="51" fill="white"/>
<circle id="Ellipse 1252" cx="561.234" cy="367.232" r="51" fill="white"/>
<circle id="Ellipse 1214" cx="615.579" cy="91.7504" r="51" fill="white"/>
<circle id="Ellipse 1253" cx="615.579" cy="275.326" r="51" fill="white"/>
<circle id="Ellipse 1282" cx="615.579" cy="460.556" r="51" fill="white"/>
<circle id="Ellipse 1231" cx="667.234" cy="183.656" r="51" fill="white"/>
<circle id="Ellipse 1254" cx="667.234" cy="367.232" r="51" fill="white"/>
<circle id="Ellipse 1215" cx="721.579" cy="91.7504" r="51" fill="white"/>
<circle id="Ellipse 1255" cx="721.579" cy="275.326" r="51" fill="white"/>
<circle id="Ellipse 1283" cx="721.579" cy="460.556" r="51" fill="white"/>
<circle id="Ellipse 1232" cx="773.234" cy="183.656" r="51" fill="white"/>
<circle id="Ellipse 1256" cx="773.234" cy="367.232" r="51" fill="white"/>
<circle id="Ellipse 1216" cx="827.579" cy="91.7504" r="51" fill="white"/>
<circle id="Ellipse 1257" cx="827.579" cy="275.326" r="51" fill="white"/>
<circle id="Ellipse 1284" cx="827.579" cy="460.556" r="51" fill="white"/>
<circle id="Ellipse 1233" cx="879.234" cy="183.656" r="51" fill="white"/>
<circle id="Ellipse 1258" cx="879.234" cy="367.232" r="51" fill="white"/>
<circle id="Ellipse 1217" cx="933.579" cy="91.7504" r="51" fill="white"/>
<circle id="Ellipse 1259" cx="933.579" cy="275.326" r="51" fill="white"/>
<circle id="Ellipse 1285" cx="933.579" cy="460.556" r="51" fill="white"/>
<circle id="Ellipse 1234" cx="985.234" cy="183.656" r="51" fill="white"/>
<circle id="Ellipse 1260" cx="985.234" cy="367.232" r="51" fill="white"/>
<circle id="Ellipse 1218" cx="1039.58" cy="91.7504" r="51" fill="white"/>
<circle id="Ellipse 1261" cx="1039.58" cy="275.326" r="51" fill="white"/>
<circle id="Ellipse 1286" cx="1039.58" cy="460.556" r="51" fill="white"/>
<circle id="Ellipse 1235" cx="1091.23" cy="183.656" r="51" fill="white"/>
<circle id="Ellipse 1262" cx="1091.23" cy="367.232" r="51" fill="white"/>
<circle id="Ellipse 1219" cx="1145.58" cy="91.7504" r="51" fill="white"/>
<circle id="Ellipse 1263" cx="1145.58" cy="275.326" r="51" fill="white"/>
<circle id="Ellipse 1287" cx="1145.58" cy="460.556" r="51" fill="white"/>
<circle id="Ellipse 1236" cx="1197.23" cy="183.656" r="51" fill="white"/>
<circle id="Ellipse 1264" cx="1197.23" cy="367.232" r="51" fill="white"/>
<circle id="Ellipse 1220" cx="1251.58" cy="91.7504" r="51" fill="white"/>
<circle id="Ellipse 1265" cx="1251.58" cy="275.326" r="51" fill="white"/>
<circle id="Ellipse 1288" cx="1251.58" cy="460.556" r="51" fill="white"/>
<circle id="Ellipse 1237" cx="1303.23" cy="183.656" r="51" fill="white"/>
<circle id="Ellipse 1266" cx="1303.23" cy="367.232" r="51" fill="white"/>
<circle id="Ellipse 1221" cx="1357.58" cy="91.7504" r="51" fill="white"/>
<circle id="Ellipse 1267" cx="1357.58" cy="275.326" r="51" fill="white"/>
<circle id="Ellipse 1289" cx="1357.58" cy="460.556" r="51" fill="white"/>
<circle id="Ellipse 1238" cx="1409.23" cy="183.656" r="51" fill="white"/>
<circle id="Ellipse 1268" cx="1409.23" cy="367.232" r="51" fill="white"/>
<circle id="Ellipse 1222" cx="1463.58" cy="91.7504" r="51" fill="white"/>
<circle id="Ellipse 1269" cx="1463.58" cy="275.326" r="51" fill="white"/>
<circle id="Ellipse 1290" cx="1463.58" cy="460.556" r="51" fill="white"/>
<circle id="Ellipse 1239" cx="1515.23" cy="183.656" r="51" fill="white"/>
<circle id="Ellipse 1270" cx="1515.23" cy="367.232" r="51" fill="white"/>
<circle id="Ellipse 1223" cx="1569.58" cy="91.7504" r="51" fill="white"/>
<circle id="Ellipse 1271" cx="1569.58" cy="275.326" r="51" fill="white"/>
<circle id="Ellipse 1291" cx="1569.58" cy="460.556" r="51" fill="white"/>
<circle id="Ellipse 1240" cx="1621.23" cy="183.656" r="51" fill="white"/>
<circle id="Ellipse 1272" cx="1621.23" cy="367.232" r="51" fill="white"/>
<circle id="Ellipse 1224" cx="1675.58" cy="91.7504" r="51" fill="white"/>
<circle id="Ellipse 1273" cx="1675.58" cy="275.326" r="51" fill="white"/>
<circle id="Ellipse 1292" cx="1675.58" cy="460.556" r="51" fill="white"/>
<circle id="Ellipse 1241" cx="1727.23" cy="183.656" r="51" fill="white"/>
<circle id="Ellipse 1274" cx="1727.23" cy="367.232" r="51" fill="white"/>
<circle id="Ellipse 1225" cx="1781.58" cy="91.7504" r="51" fill="white"/>
<circle id="Ellipse 1275" cx="1781.58" cy="275.326" r="51" fill="white"/>
<circle id="Ellipse 1293" cx="1781.58" cy="460.556" r="51" fill="white"/>
<circle id="Ellipse 1242" cx="1833.23" cy="183.656" r="51" fill="white"/>
<circle id="Ellipse 1276" cx="1833.23" cy="367.232" r="51" fill="white"/>
</g>
</svg>
