<svg width="771" height="289" viewBox="0 0 771 289" fill="none" xmlns="http://www.w3.org/2000/svg">
<circle cx="664.645" cy="245.88" r="42.6165" fill="white"/>
<circle cx="561.031" cy="245.88" r="42.6165" fill="white"/>
<circle cx="457.417" cy="245.88" r="42.6165" fill="white"/>
<circle cx="353.804" cy="245.88" r="42.6165" fill="white"/>
<circle cx="250.19" cy="245.88" r="42.6165" fill="white"/>
<circle cx="146.577" cy="245.88" r="42.6165" fill="white"/>
<circle cx="42.9622" cy="245.88" r="42.6165" fill="white"/>
<circle cx="727.893" cy="144.35" r="42.6165" fill="white"/>
<circle cx="624.279" cy="144.35" r="42.6165" fill="white"/>
<circle cx="520.665" cy="144.35" r="42.6165" fill="white"/>
<circle cx="417.052" cy="144.35" r="42.6165" fill="white"/>
<circle cx="313.438" cy="144.35" r="42.6165" fill="white"/>
<circle cx="209.825" cy="144.35" r="42.6165" fill="white"/>
<circle cx="106.211" cy="144.35" r="42.6165" fill="white"/>
<circle cx="665.18" cy="43.1454" r="42.6165" fill="white"/>
<circle cx="561.566" cy="43.1454" r="42.6165" fill="white"/>
<circle cx="457.952" cy="43.1454" r="42.6165" fill="white"/>
<circle cx="354.338" cy="43.1454" r="42.6165" fill="white"/>
<circle cx="250.725" cy="43.1454" r="42.6165" fill="white"/>
<circle cx="147.111" cy="43.1454" r="42.6165" fill="white"/>
<circle cx="43.4974" cy="43.1454" r="42.6165" fill="white"/>
</svg>
